<svg id="svg" version="1.1" xmlns="http://www.w3.org/2000/svg" xmlns:xlink="http://www.w3.org/1999/xlink" width="400" height="120" viewBox="0, 0, 400,120"><g id="svgg"><path id="path0" d="M29.833 23.000 L 29.833 27.000 39.583 27.000 L 49.333 27.000 49.333 23.000 L 49.333 19.000 39.583 19.000 L 29.833 19.000 29.833 23.000 M101.000 19.833 C 101.000 20.292,100.925 20.667,100.833 20.667 C 100.741 20.667,100.667 21.105,100.667 21.649 C 100.667 22.368,100.600 22.657,100.417 22.727 C 100.272 22.782,100.167 23.032,100.167 23.318 C 100.167 23.591,100.092 23.860,100.000 23.917 C 99.908 23.973,99.833 24.232,99.833 24.492 C 99.833 24.758,99.724 25.006,99.583 25.060 C 99.446 25.113,99.333 25.309,99.333 25.495 C 99.333 25.681,99.258 25.833,99.167 25.833 C 99.075 25.833,99.000 25.946,99.000 26.083 C 99.000 26.221,98.925 26.333,98.833 26.333 C 98.742 26.333,98.667 26.483,98.667 26.667 C 98.667 26.852,98.556 27.000,98.417 27.000 C 98.279 27.000,98.167 27.113,98.167 27.250 C 98.167 27.387,98.092 27.500,98.000 27.500 C 97.908 27.500,97.833 27.615,97.833 27.755 C 97.833 27.896,97.721 28.054,97.583 28.106 C 97.446 28.159,97.333 28.273,97.333 28.359 C 97.333 28.550,96.568 29.333,96.381 29.333 C 96.307 29.333,96.044 29.521,95.797 29.750 C 95.550 29.979,95.270 30.167,95.174 30.167 C 95.078 30.167,95.000 30.279,95.000 30.417 C 95.000 30.554,94.864 30.667,94.698 30.667 C 94.532 30.667,94.235 30.817,94.038 31.000 C 93.842 31.183,93.563 31.333,93.418 31.333 C 93.274 31.333,93.113 31.446,93.060 31.583 C 93.008 31.721,92.785 31.833,92.566 31.833 C 92.346 31.833,92.167 31.908,92.167 32.000 C 92.167 32.092,91.904 32.167,91.583 32.167 C 91.176 32.167,91.000 32.242,91.000 32.417 C 91.000 32.611,90.778 32.667,90.000 32.667 C 89.444 32.667,89.000 32.741,89.000 32.833 C 89.000 32.942,86.083 33.000,80.583 33.000 L 72.167 33.000 72.167 67.167 L 72.167 101.333 93.750 101.333 C 108.028 101.333,115.333 101.277,115.333 101.167 C 115.333 101.070,115.861 101.000,116.583 101.000 C 117.306 101.000,117.833 100.930,117.833 100.833 C 117.833 100.742,118.090 100.667,118.405 100.667 C 118.719 100.667,119.089 100.554,119.226 100.417 C 119.364 100.279,119.627 100.167,119.812 100.167 C 119.996 100.167,120.193 100.092,120.250 100.000 C 120.307 99.908,120.538 99.833,120.765 99.833 C 120.992 99.833,121.220 99.721,121.273 99.583 C 121.326 99.446,121.459 99.333,121.568 99.333 C 121.861 99.333,122.664 98.937,122.665 98.792 C 122.666 98.723,122.782 98.667,122.922 98.667 C 123.062 98.667,123.220 98.554,123.273 98.417 C 123.326 98.279,123.473 98.167,123.601 98.167 C 123.729 98.167,123.833 98.092,123.833 98.000 C 123.833 97.908,123.947 97.833,124.086 97.833 C 124.225 97.833,124.594 97.571,124.906 97.250 C 125.217 96.929,125.553 96.667,125.653 96.667 C 125.752 96.667,125.833 96.586,125.833 96.488 C 125.833 96.257,126.257 95.833,126.488 95.833 C 126.586 95.833,126.667 95.752,126.667 95.653 C 126.667 95.553,126.929 95.217,127.250 94.906 C 127.571 94.594,127.833 94.225,127.833 94.086 C 127.833 93.947,127.908 93.833,128.000 93.833 C 128.092 93.833,128.167 93.721,128.167 93.583 C 128.167 93.446,128.279 93.333,128.417 93.333 C 128.556 93.333,128.667 93.185,128.667 93.000 C 128.667 92.817,128.742 92.667,128.833 92.667 C 128.925 92.667,129.000 92.554,129.000 92.417 C 129.000 92.279,129.075 92.167,129.167 92.167 C 129.258 92.167,129.333 91.979,129.333 91.750 C 129.333 91.491,129.428 91.333,129.583 91.333 C 129.739 91.333,129.833 91.176,129.833 90.917 C 129.833 90.688,129.908 90.500,130.000 90.500 C 130.092 90.500,130.167 90.246,130.167 89.934 C 130.167 89.586,130.262 89.332,130.417 89.273 C 130.563 89.217,130.667 88.967,130.667 88.672 C 130.667 88.394,130.742 88.167,130.833 88.167 C 130.926 88.167,131.000 87.722,131.000 87.167 C 131.000 86.611,131.074 86.167,131.167 86.167 C 131.277 86.167,131.333 77.194,131.333 59.583 L 131.333 33.000 117.750 33.000 C 110.279 33.000,104.167 32.968,104.167 32.929 C 104.167 32.889,104.429 32.579,104.750 32.239 C 105.071 31.898,105.333 31.481,105.333 31.310 C 105.333 31.140,105.432 31.000,105.552 31.000 C 105.673 31.000,105.874 30.738,106.000 30.417 C 106.126 30.096,106.282 29.833,106.346 29.833 C 106.411 29.833,106.511 29.646,106.568 29.417 C 106.626 29.188,106.747 29.000,106.837 29.000 C 106.926 29.000,107.000 28.817,107.000 28.593 C 107.000 28.369,107.075 28.140,107.167 28.083 C 107.258 28.027,107.333 27.760,107.333 27.490 C 107.333 27.166,107.418 27.000,107.583 27.000 C 107.758 27.000,107.833 26.824,107.833 26.417 C 107.833 26.096,107.908 25.833,108.000 25.833 C 108.092 25.833,108.167 25.466,108.167 25.018 C 108.167 24.447,108.242 24.174,108.417 24.106 C 108.604 24.035,108.667 23.736,108.667 22.922 C 108.667 22.307,108.739 21.833,108.833 21.833 C 108.931 21.833,109.000 21.250,109.000 20.417 L 109.000 19.000 105.000 19.000 L 101.000 19.000 101.000 19.833 M11.833 58.730 C 11.833 85.693,11.804 89.317,11.583 89.500 C 11.446 89.614,11.333 89.923,11.333 90.187 C 11.333 90.451,11.258 90.667,11.167 90.667 C 11.075 90.667,11.000 90.817,11.000 91.000 C 11.000 91.183,10.925 91.333,10.833 91.333 C 10.742 91.333,10.667 91.446,10.667 91.583 C 10.667 91.721,10.586 91.833,10.488 91.833 C 10.257 91.833,9.833 92.257,9.833 92.488 C 9.833 92.586,9.646 92.667,9.417 92.667 C 9.188 92.667,9.000 92.742,9.000 92.833 C 9.000 92.925,8.737 93.000,8.417 93.000 C 8.096 93.000,7.833 93.075,7.833 93.167 C 7.833 93.258,7.646 93.333,7.417 93.333 L 7.000 93.333 7.000 97.333 L 7.000 101.333 8.167 101.333 C 8.833 101.333,9.333 101.262,9.333 101.167 C 9.333 101.075,9.708 101.000,10.167 101.000 C 10.625 101.000,11.000 100.925,11.000 100.833 C 11.000 100.742,11.262 100.667,11.583 100.667 C 11.991 100.667,12.167 100.591,12.167 100.417 C 12.167 100.261,12.324 100.167,12.583 100.167 C 12.813 100.167,13.000 100.092,13.000 100.000 C 13.000 99.908,13.188 99.833,13.417 99.833 C 13.676 99.833,13.833 99.739,13.833 99.583 C 13.833 99.444,13.981 99.333,14.167 99.333 C 14.350 99.333,14.500 99.258,14.500 99.167 C 14.500 99.075,14.580 99.000,14.679 99.000 C 14.909 99.000,15.333 98.576,15.333 98.345 C 15.333 98.247,15.414 98.167,15.512 98.167 C 15.743 98.167,16.167 97.743,16.167 97.512 C 16.167 97.414,16.252 97.333,16.356 97.333 C 16.631 97.333,17.333 96.466,17.333 96.125 C 17.333 95.965,17.446 95.833,17.583 95.833 C 17.721 95.833,17.833 95.721,17.833 95.583 C 17.833 95.446,17.908 95.333,18.000 95.333 C 18.092 95.333,18.167 95.188,18.167 95.010 C 18.167 94.832,18.237 94.643,18.323 94.590 C 18.576 94.433,19.000 93.480,19.000 93.068 C 19.000 92.858,19.075 92.640,19.167 92.583 C 19.258 92.527,19.333 92.179,19.333 91.812 C 19.333 91.439,19.444 91.032,19.583 90.893 C 19.804 90.673,19.833 87.394,19.833 63.405 L 19.833 36.167 43.000 36.167 L 66.167 36.167 66.167 32.167 L 66.167 28.167 39.000 28.167 L 11.833 28.167 11.833 58.730 M230.727 33.583 C 230.657 33.766,230.368 33.833,229.649 33.833 C 229.105 33.833,228.667 33.908,228.667 34.000 C 228.667 34.092,228.404 34.167,228.083 34.167 C 227.676 34.167,227.500 34.242,227.500 34.417 C 227.500 34.572,227.343 34.667,227.083 34.667 C 226.854 34.667,226.667 34.742,226.667 34.833 C 226.667 34.925,226.479 35.000,226.250 35.000 C 226.021 35.000,225.833 35.075,225.833 35.167 C 225.833 35.258,225.646 35.333,225.417 35.333 C 225.157 35.333,225.000 35.428,225.000 35.583 C 225.000 35.739,224.843 35.833,224.583 35.833 C 224.354 35.833,224.167 35.908,224.167 36.000 C 224.167 36.092,224.052 36.167,223.911 36.167 C 223.771 36.167,223.613 36.279,223.560 36.417 C 223.508 36.554,223.360 36.667,223.232 36.667 C 223.104 36.667,223.000 36.725,223.000 36.797 C 223.000 36.869,222.756 37.072,222.458 37.247 C 222.160 37.423,221.771 37.702,221.594 37.867 C 221.416 38.032,221.210 38.167,221.135 38.167 C 221.061 38.167,221.000 38.247,221.000 38.345 C 221.000 38.576,220.576 39.000,220.345 39.000 C 220.247 39.000,220.167 39.057,220.167 39.127 C 220.167 39.197,219.906 39.553,219.587 39.918 C 219.267 40.284,219.005 40.650,219.003 40.731 C 219.001 40.812,218.813 41.052,218.583 41.265 C 218.354 41.477,218.167 41.767,218.167 41.909 C 218.167 42.051,218.092 42.167,218.000 42.167 C 217.908 42.167,217.833 42.279,217.833 42.417 C 217.833 42.554,217.760 42.667,217.670 42.667 C 217.580 42.667,217.459 42.854,217.402 43.083 C 217.344 43.313,217.230 43.500,217.149 43.500 C 217.067 43.500,217.000 43.688,217.000 43.917 C 217.000 44.146,216.925 44.333,216.833 44.333 C 216.742 44.333,216.667 44.550,216.667 44.816 C 216.667 45.090,216.559 45.339,216.417 45.394 C 216.260 45.454,216.167 45.709,216.167 46.078 C 216.167 46.402,216.092 46.667,216.000 46.667 C 215.908 46.667,215.833 46.969,215.833 47.339 C 215.833 47.709,215.720 48.185,215.581 48.398 C 215.237 48.922,215.280 77.177,215.625 77.292 C 215.754 77.335,215.833 77.673,215.833 78.181 C 215.833 78.631,215.908 79.000,216.000 79.000 C 216.092 79.000,216.167 79.262,216.167 79.583 C 216.167 79.991,216.242 80.167,216.417 80.167 C 216.591 80.167,216.667 80.343,216.667 80.750 C 216.667 81.071,216.742 81.333,216.833 81.333 C 216.925 81.333,217.000 81.521,217.000 81.750 C 217.000 81.979,217.075 82.167,217.167 82.167 C 217.258 82.167,217.333 82.274,217.333 82.405 C 217.333 82.536,217.432 82.742,217.552 82.863 C 217.672 82.984,217.878 83.327,218.009 83.625 C 218.141 83.923,218.342 84.167,218.457 84.167 C 218.572 84.167,218.667 84.310,218.667 84.485 C 218.667 84.660,219.004 85.150,219.417 85.574 C 219.829 85.999,220.167 86.378,220.167 86.416 C 220.167 86.538,221.443 87.833,221.564 87.833 C 221.627 87.833,222.007 88.171,222.408 88.583 C 222.813 89.000,223.292 89.333,223.485 89.333 C 223.677 89.333,223.833 89.419,223.833 89.523 C 223.833 89.774,224.345 90.155,224.691 90.161 C 224.841 90.164,225.008 90.279,225.060 90.417 C 225.113 90.554,225.309 90.667,225.495 90.667 C 225.681 90.667,225.833 90.742,225.833 90.833 C 225.833 90.925,226.021 91.000,226.250 91.000 C 226.479 91.000,226.667 91.075,226.667 91.167 C 226.667 91.258,226.809 91.333,226.982 91.333 C 227.156 91.333,227.341 91.446,227.394 91.583 C 227.446 91.721,227.675 91.833,227.902 91.833 C 228.128 91.833,228.360 91.908,228.417 92.000 C 228.473 92.092,228.807 92.167,229.159 92.167 C 229.573 92.167,229.831 92.255,229.894 92.417 C 229.963 92.597,230.246 92.667,230.911 92.667 C 231.418 92.667,231.833 92.742,231.833 92.833 C 231.833 92.938,232.969 93.000,234.907 93.000 C 236.776 93.000,238.021 92.935,238.083 92.833 C 238.140 92.742,238.552 92.667,238.998 92.667 C 239.497 92.667,239.906 92.570,240.060 92.417 C 240.197 92.279,240.540 92.167,240.821 92.167 C 241.103 92.167,241.333 92.092,241.333 92.000 C 241.333 91.908,241.588 91.833,241.899 91.833 C 242.248 91.833,242.501 91.738,242.560 91.583 C 242.613 91.446,242.809 91.333,242.995 91.333 C 243.181 91.333,243.333 91.258,243.333 91.167 C 243.333 91.075,243.521 91.000,243.750 91.000 C 243.979 91.000,244.167 90.925,244.167 90.833 C 244.167 90.742,244.319 90.667,244.505 90.667 C 244.691 90.667,244.887 90.554,244.940 90.417 C 244.992 90.279,245.178 90.167,245.351 90.167 C 245.525 90.167,245.667 90.092,245.667 90.000 C 245.667 89.908,245.779 89.833,245.917 89.833 C 246.054 89.833,246.167 89.721,246.167 89.583 C 246.167 89.446,246.279 89.333,246.417 89.333 C 246.624 89.333,246.667 89.648,246.667 91.170 L 246.667 93.006 250.625 92.961 L 254.583 92.917 254.583 78.417 L 254.583 63.917 243.958 63.874 L 233.333 63.831 233.333 67.832 L 233.333 71.833 240.000 71.833 L 246.667 71.833 246.667 73.399 C 246.667 74.637,246.614 74.984,246.417 75.060 C 246.245 75.126,246.167 75.394,246.167 75.911 C 246.167 76.327,246.092 76.667,246.000 76.667 C 245.908 76.667,245.833 76.921,245.833 77.232 C 245.833 77.581,245.738 77.834,245.583 77.894 C 245.446 77.946,245.333 78.142,245.333 78.328 C 245.333 78.514,245.258 78.667,245.167 78.667 C 245.075 78.667,245.000 78.817,245.000 79.000 C 245.000 79.183,244.925 79.333,244.833 79.333 C 244.742 79.333,244.667 79.438,244.667 79.566 C 244.667 79.693,244.554 79.841,244.417 79.894 C 244.279 79.946,244.167 80.110,244.167 80.257 C 244.167 80.560,243.779 81.000,243.512 81.000 C 243.414 81.000,243.333 81.056,243.333 81.125 C 243.333 81.338,242.555 82.167,242.356 82.167 C 242.252 82.167,242.167 82.279,242.167 82.417 C 242.167 82.556,242.019 82.667,241.833 82.667 C 241.650 82.667,241.500 82.742,241.500 82.833 C 241.500 82.925,241.387 83.000,241.250 83.000 C 241.112 83.000,241.000 83.075,241.000 83.167 C 241.000 83.258,240.848 83.333,240.661 83.333 C 240.475 83.333,240.280 83.446,240.227 83.583 C 240.174 83.721,239.993 83.833,239.825 83.833 C 239.657 83.833,239.473 83.908,239.417 84.000 C 239.360 84.092,239.140 84.167,238.927 84.167 C 238.715 84.167,238.447 84.279,238.333 84.417 C 238.215 84.559,237.852 84.667,237.489 84.667 C 237.139 84.667,236.807 84.742,236.750 84.833 C 236.691 84.928,235.859 85.000,234.823 85.000 C 233.719 85.000,233.000 84.934,233.000 84.833 C 233.000 84.742,232.625 84.667,232.167 84.667 C 231.537 84.667,231.333 84.606,231.333 84.417 C 231.333 84.263,231.177 84.167,230.927 84.167 C 230.703 84.167,230.473 84.092,230.417 84.000 C 230.360 83.908,230.186 83.833,230.030 83.833 C 229.874 83.833,229.544 83.646,229.297 83.417 C 229.050 83.188,228.732 83.000,228.591 83.000 C 228.299 83.000,225.833 80.630,225.833 80.349 C 225.833 80.249,225.748 80.167,225.643 80.167 C 225.387 80.167,225.012 79.652,225.005 79.292 C 225.002 79.131,224.925 79.000,224.833 79.000 C 224.742 79.000,224.667 78.848,224.667 78.661 C 224.667 78.475,224.554 78.280,224.417 78.227 C 224.279 78.174,224.167 77.952,224.167 77.732 C 224.167 77.513,224.092 77.333,224.000 77.333 C 223.908 77.333,223.833 77.079,223.833 76.768 C 223.833 76.419,223.738 76.166,223.583 76.106 C 223.204 75.961,223.204 49.333,223.583 49.333 C 223.758 49.333,223.833 49.157,223.833 48.750 C 223.833 48.429,223.908 48.167,224.000 48.167 C 224.092 48.167,224.167 47.979,224.167 47.750 C 224.167 47.491,224.261 47.333,224.417 47.333 C 224.556 47.333,224.667 47.185,224.667 47.000 C 224.667 46.817,224.742 46.667,224.833 46.667 C 224.925 46.667,225.000 46.554,225.000 46.417 C 225.000 46.279,225.075 46.167,225.167 46.167 C 225.258 46.167,225.333 45.979,225.333 45.750 C 225.333 45.521,225.412 45.333,225.508 45.333 C 225.735 45.333,227.333 43.735,227.333 43.508 C 227.333 43.412,227.521 43.333,227.750 43.333 C 227.979 43.333,228.167 43.258,228.167 43.167 C 228.167 43.075,228.279 43.000,228.417 43.000 C 228.554 43.000,228.667 42.925,228.667 42.833 C 228.667 42.742,228.817 42.667,229.000 42.667 C 229.185 42.667,229.333 42.556,229.333 42.417 C 229.333 42.242,229.509 42.167,229.917 42.167 C 230.237 42.167,230.500 42.092,230.500 42.000 C 230.500 41.908,230.682 41.833,230.905 41.833 C 231.127 41.833,231.422 41.721,231.560 41.583 C 231.764 41.379,232.383 41.333,234.970 41.333 C 237.626 41.333,238.146 41.373,238.227 41.583 C 238.282 41.728,238.532 41.833,238.818 41.833 C 239.091 41.833,239.360 41.908,239.417 42.000 C 239.473 42.092,239.665 42.167,239.843 42.167 C 240.021 42.167,240.167 42.240,240.167 42.330 C 240.167 42.420,240.354 42.541,240.583 42.598 C 240.813 42.656,241.000 42.770,241.000 42.851 C 241.000 42.933,241.131 43.002,241.292 43.005 C 241.652 43.012,242.167 43.387,242.167 43.643 C 242.167 43.748,242.245 43.833,242.341 43.833 C 242.437 43.833,242.887 44.205,243.341 44.659 C 243.795 45.113,244.167 45.563,244.167 45.659 C 244.167 45.755,244.279 45.833,244.417 45.833 C 244.556 45.833,244.667 45.981,244.667 46.167 C 244.667 46.350,244.742 46.500,244.833 46.500 C 244.925 46.500,245.000 46.612,245.000 46.750 C 245.000 46.887,245.075 47.000,245.167 47.000 C 245.258 47.000,245.333 47.152,245.333 47.339 C 245.333 47.525,245.446 47.720,245.583 47.773 C 245.738 47.832,245.833 48.086,245.833 48.434 C 245.833 48.746,245.908 49.000,246.000 49.000 C 246.092 49.000,246.167 49.337,246.167 49.750 C 246.167 50.297,246.233 50.500,246.411 50.500 C 246.605 50.500,246.664 50.831,246.702 52.125 L 246.750 53.750 250.605 53.795 L 254.460 53.839 254.561 53.461 C 254.777 52.655,254.675 49.575,254.422 49.240 C 254.282 49.055,254.175 48.546,254.172 48.052 C 254.169 47.576,254.092 47.140,254.000 47.083 C 253.908 47.027,253.833 46.722,253.833 46.407 C 253.833 46.008,253.757 45.833,253.583 45.833 C 253.409 45.833,253.333 45.657,253.333 45.250 C 253.333 44.929,253.258 44.667,253.167 44.667 C 253.075 44.667,253.000 44.479,253.000 44.250 C 253.000 44.021,252.925 43.833,252.833 43.833 C 252.742 43.833,252.667 43.726,252.667 43.595 C 252.667 43.464,252.568 43.258,252.448 43.137 C 252.328 43.016,252.122 42.673,251.991 42.375 C 251.859 42.077,251.658 41.833,251.543 41.833 C 251.428 41.833,251.333 41.694,251.333 41.523 C 251.333 41.353,251.090 40.954,250.792 40.637 C 250.494 40.321,250.028 39.766,249.758 39.406 C 249.152 38.600,248.321 37.840,248.042 37.836 C 247.927 37.835,247.833 37.721,247.833 37.583 C 247.833 37.446,247.737 37.333,247.620 37.333 C 247.503 37.333,247.299 37.183,247.167 37.000 C 247.035 36.817,246.755 36.667,246.547 36.667 C 246.338 36.667,246.167 36.581,246.167 36.477 C 246.167 36.226,245.655 35.845,245.309 35.839 C 245.159 35.836,244.992 35.721,244.940 35.583 C 244.887 35.446,244.691 35.333,244.505 35.333 C 244.319 35.333,244.167 35.258,244.167 35.167 C 244.167 35.075,243.979 35.000,243.750 35.000 C 243.521 35.000,243.333 34.925,243.333 34.833 C 243.333 34.742,243.106 34.667,242.828 34.667 C 242.533 34.667,242.283 34.563,242.227 34.417 C 242.168 34.262,241.914 34.167,241.566 34.167 C 241.254 34.167,241.000 34.092,241.000 34.000 C 241.000 33.908,240.633 33.833,240.184 33.833 C 239.613 33.833,239.340 33.758,239.273 33.583 C 239.191 33.370,238.559 33.333,235.000 33.333 C 231.441 33.333,230.809 33.370,230.727 33.583 M25.947 37.942 C 25.885 38.004,25.833 38.981,25.833 40.111 L 25.833 42.167 23.833 42.167 L 21.833 42.167 21.833 46.167 L 21.833 50.167 23.833 50.167 L 25.833 50.167 25.833 56.750 L 25.833 63.333 33.000 63.333 L 40.167 63.333 40.167 65.583 L 40.167 67.833 31.167 67.833 L 22.167 67.833 22.167 83.000 L 22.167 98.167 26.167 98.167 L 30.167 98.167 30.167 87.000 L 30.167 75.833 35.167 75.833 L 40.167 75.833 40.167 88.583 L 40.167 101.333 44.167 101.333 L 48.167 101.333 48.167 88.583 L 48.167 75.833 53.000 75.833 L 57.833 75.833 57.833 81.480 C 57.833 86.101,57.791 87.161,57.601 87.318 C 57.474 87.424,57.271 87.752,57.150 88.047 C 56.816 88.863,55.263 89.833,54.289 89.833 L 53.833 89.833 53.833 93.833 L 53.833 97.833 55.339 97.833 C 56.523 97.833,56.864 97.780,56.940 97.583 C 56.999 97.429,57.252 97.333,57.601 97.333 C 57.912 97.333,58.167 97.258,58.167 97.167 C 58.167 97.075,58.429 97.000,58.750 97.000 C 59.071 97.000,59.333 96.933,59.333 96.851 C 59.333 96.770,59.521 96.656,59.750 96.598 C 59.979 96.541,60.167 96.420,60.167 96.330 C 60.167 96.240,60.279 96.167,60.417 96.167 C 60.554 96.167,60.667 96.092,60.667 96.000 C 60.667 95.908,60.817 95.833,61.000 95.833 C 61.185 95.833,61.333 95.722,61.333 95.583 C 61.333 95.446,61.412 95.333,61.508 95.333 C 61.735 95.333,63.333 93.735,63.333 93.508 C 63.333 93.412,63.446 93.333,63.583 93.333 C 63.722 93.333,63.833 93.185,63.833 93.000 C 63.833 92.817,63.908 92.667,64.000 92.667 C 64.092 92.667,64.167 92.554,64.167 92.417 C 64.167 92.279,64.240 92.167,64.330 92.167 C 64.420 92.167,64.541 91.979,64.598 91.750 C 64.656 91.521,64.770 91.333,64.851 91.333 C 64.933 91.333,65.000 91.113,65.000 90.843 C 65.000 90.574,65.075 90.307,65.167 90.250 C 65.258 90.193,65.333 89.889,65.333 89.573 C 65.333 89.178,65.410 89.000,65.580 89.000 C 65.794 89.000,65.838 87.849,65.908 80.375 C 65.952 75.631,66.009 70.887,66.036 69.833 L 66.083 67.917 57.125 67.874 L 48.167 67.830 48.167 65.582 L 48.167 63.333 50.583 63.333 C 52.083 63.333,53.000 63.270,53.000 63.167 C 53.000 63.075,53.206 62.999,53.458 62.997 C 54.058 62.994,55.221 62.586,55.300 62.351 C 55.333 62.250,55.542 62.167,55.764 62.167 C 55.985 62.167,56.167 62.092,56.167 62.000 C 56.167 61.908,56.271 61.833,56.399 61.833 C 56.527 61.833,56.674 61.721,56.727 61.583 C 56.780 61.446,56.938 61.333,57.078 61.333 C 57.218 61.333,57.333 61.258,57.333 61.167 C 57.333 61.075,57.414 61.000,57.512 61.000 C 57.743 61.000,58.167 60.576,58.167 60.345 C 58.167 60.247,58.247 60.167,58.345 60.167 C 58.557 60.167,59.000 59.750,59.000 59.551 C 59.000 59.475,59.188 59.272,59.417 59.100 C 59.646 58.927,59.833 58.653,59.833 58.491 C 59.833 58.328,59.897 58.169,59.975 58.139 C 60.258 58.028,61.000 56.663,61.000 56.253 C 61.000 56.022,61.075 55.833,61.167 55.833 C 61.258 55.833,61.333 55.565,61.333 55.238 C 61.333 54.911,61.446 54.530,61.583 54.393 C 61.778 54.199,61.833 53.700,61.833 52.155 L 61.833 50.167 63.833 50.167 L 65.833 50.167 65.833 46.167 L 65.833 42.167 63.833 42.167 L 61.833 42.167 61.833 40.000 L 61.833 37.833 57.833 37.833 L 53.833 37.833 53.833 40.000 L 53.833 42.167 44.005 42.167 L 34.177 42.167 34.130 40.042 L 34.083 37.917 30.072 37.872 C 27.866 37.848,26.010 37.879,25.947 37.942 M123.333 62.833 C 123.333 77.278,123.277 84.667,123.167 84.667 C 123.075 84.667,123.000 85.004,123.000 85.417 C 123.000 85.829,122.925 86.167,122.833 86.167 C 122.742 86.167,122.667 86.354,122.667 86.583 C 122.667 86.813,122.606 87.000,122.532 87.000 C 122.385 87.000,121.833 88.162,121.833 88.473 C 121.833 88.579,121.739 88.667,121.624 88.667 C 121.509 88.667,121.307 88.910,121.176 89.208 C 120.905 89.823,120.607 90.167,120.345 90.167 C 120.247 90.167,120.167 90.247,120.167 90.345 C 120.167 90.592,119.737 90.999,119.470 91.005 C 119.169 91.013,118.667 91.411,118.667 91.643 C 118.667 91.748,118.479 91.833,118.250 91.833 C 118.021 91.833,117.833 91.908,117.833 92.000 C 117.833 92.092,117.681 92.167,117.495 92.167 C 117.309 92.167,117.113 92.279,117.060 92.417 C 117.006 92.559,116.757 92.667,116.482 92.667 C 116.217 92.667,116.000 92.742,116.000 92.833 C 116.000 92.926,115.559 93.000,115.010 93.000 C 114.465 93.000,113.973 93.075,113.917 93.167 C 113.849 93.276,108.026 93.333,96.990 93.333 L 80.167 93.333 80.167 82.167 L 80.167 71.000 97.750 71.000 L 115.333 71.000 115.333 67.200 C 115.333 64.467,115.277 63.344,115.133 63.200 C 114.980 63.047,110.848 63.000,97.550 63.000 L 80.167 63.000 80.167 52.000 L 80.167 41.000 101.750 41.000 L 123.333 41.000 123.333 62.833 M53.833 51.345 C 53.833 52.171,53.758 52.599,53.583 52.774 C 53.446 52.911,53.333 53.154,53.333 53.314 C 53.333 53.473,53.183 53.765,53.000 53.962 C 52.817 54.158,52.667 54.398,52.667 54.493 C 52.667 54.589,52.554 54.667,52.417 54.667 C 52.279 54.667,52.167 54.742,52.167 54.833 C 52.167 54.925,51.984 55.000,51.760 55.000 C 51.536 55.000,51.307 55.075,51.250 55.167 C 51.184 55.274,48.137 55.333,42.657 55.333 L 34.167 55.333 34.167 52.750 L 34.167 50.167 44.000 50.167 L 53.833 50.167 53.833 51.345 M361.607 52.417 C 361.445 52.579,361.032 52.667,360.429 52.667 C 359.918 52.667,359.500 52.742,359.500 52.833 C 359.500 52.925,359.242 53.000,358.927 53.000 C 358.611 53.000,358.307 53.075,358.250 53.167 C 358.193 53.258,357.999 53.333,357.818 53.333 C 357.637 53.333,357.446 53.446,357.394 53.583 C 357.341 53.721,357.171 53.833,357.015 53.833 C 356.578 53.833,355.836 54.226,355.835 54.458 C 355.834 54.573,355.646 54.667,355.417 54.667 C 355.188 54.667,355.000 54.742,355.000 54.833 C 355.000 54.925,354.850 55.000,354.667 55.000 C 354.483 55.000,354.333 55.075,354.333 55.167 C 354.333 55.258,354.221 55.333,354.083 55.333 C 353.946 55.333,353.833 55.446,353.833 55.583 C 353.833 55.721,353.755 55.833,353.660 55.833 C 353.564 55.833,353.395 55.910,353.285 56.003 C 352.414 56.738,352.066 57.000,351.958 57.000 C 351.890 57.000,351.833 57.074,351.833 57.164 C 351.833 57.254,351.571 57.598,351.250 57.928 C 350.929 58.258,350.667 58.635,350.667 58.764 C 350.667 58.894,350.573 59.003,350.458 59.006 C 350.240 59.013,349.333 60.218,349.333 60.502 C 349.333 60.593,349.258 60.667,349.167 60.667 C 349.075 60.667,349.000 60.817,349.000 61.000 C 349.000 61.183,348.934 61.333,348.853 61.333 C 348.772 61.333,348.660 61.465,348.605 61.625 C 348.549 61.785,348.358 62.142,348.181 62.417 C 348.003 62.692,347.852 63.123,347.846 63.375 C 347.838 63.666,347.742 63.833,347.583 63.833 C 347.429 63.833,347.333 63.990,347.333 64.240 C 347.333 64.464,347.258 64.693,347.167 64.750 C 347.075 64.807,347.000 65.149,347.000 65.510 C 347.000 65.871,346.925 66.167,346.833 66.167 C 346.741 66.167,346.667 66.605,346.667 67.149 C 346.667 67.868,346.600 68.157,346.417 68.227 C 346.203 68.309,346.167 68.977,346.167 72.828 C 346.167 76.722,346.201 77.333,346.417 77.333 C 346.611 77.333,346.667 77.554,346.667 78.323 C 346.667 78.868,346.742 79.360,346.833 79.417 C 346.925 79.473,347.000 79.853,347.000 80.260 C 347.000 80.667,347.075 81.000,347.167 81.000 C 347.258 81.000,347.333 81.136,347.333 81.301 C 347.333 81.467,347.443 81.749,347.578 81.926 C 347.713 82.104,347.825 82.419,347.828 82.625 C 347.831 82.831,347.908 83.000,348.000 83.000 C 348.092 83.000,348.167 83.152,348.167 83.339 C 348.167 83.525,348.279 83.720,348.417 83.773 C 348.554 83.826,348.667 84.011,348.667 84.184 C 348.667 84.358,348.742 84.500,348.833 84.500 C 348.925 84.500,349.000 84.612,349.000 84.750 C 349.000 84.887,349.075 85.000,349.167 85.000 C 349.258 85.000,349.333 85.109,349.333 85.242 C 349.333 85.376,349.521 85.672,349.750 85.902 C 349.979 86.131,350.167 86.397,350.167 86.492 C 350.167 86.588,350.279 86.667,350.417 86.667 C 350.554 86.667,350.667 86.786,350.667 86.931 C 350.667 87.195,352.396 89.000,352.649 89.000 C 352.722 89.000,353.052 89.263,353.383 89.583 C 353.713 89.904,354.137 90.167,354.325 90.167 C 354.513 90.167,354.667 90.252,354.667 90.357 C 354.667 90.613,355.181 90.988,355.542 90.995 C 355.702 90.998,355.833 91.075,355.833 91.167 C 355.833 91.258,356.021 91.333,356.250 91.333 C 356.509 91.333,356.667 91.428,356.667 91.583 C 356.667 91.737,356.823 91.833,357.073 91.833 C 357.297 91.833,357.527 91.908,357.583 92.000 C 357.640 92.092,357.901 92.167,358.163 92.167 C 358.425 92.167,358.668 92.253,358.703 92.359 C 358.858 92.824,368.500 93.296,368.500 92.839 C 368.500 92.744,368.867 92.667,369.321 92.667 C 369.829 92.667,370.238 92.571,370.393 92.417 C 370.530 92.279,370.911 92.167,371.238 92.167 C 371.565 92.167,371.833 92.092,371.833 92.000 C 371.833 91.908,372.061 91.833,372.339 91.833 C 372.634 91.833,372.884 91.729,372.940 91.583 C 372.992 91.446,373.215 91.333,373.434 91.333 C 373.654 91.333,373.833 91.258,373.833 91.167 C 373.833 91.075,373.934 91.000,374.058 91.000 C 374.392 91.000,375.333 90.499,375.333 90.321 C 375.333 90.236,375.446 90.167,375.583 90.167 C 375.721 90.167,375.833 90.092,375.833 90.000 C 375.833 89.908,375.947 89.833,376.086 89.833 C 376.225 89.833,376.594 89.571,376.906 89.250 C 377.217 88.929,377.553 88.667,377.653 88.667 C 377.752 88.667,377.833 88.589,377.833 88.494 C 377.833 88.399,378.171 87.993,378.583 87.592 C 379.000 87.187,379.333 86.708,379.333 86.515 C 379.333 86.323,379.414 86.167,379.512 86.167 C 379.800 86.167,380.167 85.717,380.167 85.363 C 380.167 85.183,380.279 84.992,380.417 84.940 C 380.554 84.887,380.667 84.691,380.667 84.505 C 380.667 84.319,380.742 84.167,380.833 84.167 C 380.925 84.167,381.000 83.904,381.000 83.583 C 381.000 83.262,381.075 83.000,381.167 83.000 C 381.258 83.000,381.333 82.657,381.333 82.238 C 381.333 81.776,381.434 81.376,381.589 81.221 C 381.793 81.017,381.835 80.608,381.797 79.191 L 381.750 77.417 377.792 77.372 L 373.833 77.327 373.833 78.562 C 373.833 79.507,373.774 79.820,373.583 79.894 C 373.437 79.950,373.333 80.199,373.333 80.495 C 373.333 80.773,373.258 81.000,373.167 81.000 C 373.075 81.000,373.000 81.088,373.000 81.195 C 373.000 81.532,371.103 83.225,370.518 83.411 C 370.325 83.472,370.167 83.592,370.167 83.678 C 370.167 83.763,370.021 83.833,369.843 83.833 C 369.665 83.833,369.473 83.908,369.417 84.000 C 369.360 84.092,369.091 84.167,368.818 84.167 C 368.532 84.167,368.282 84.272,368.227 84.417 C 368.156 84.603,367.859 84.667,367.066 84.667 C 366.466 84.667,366.000 84.740,366.000 84.833 C 366.000 84.932,365.389 85.000,364.500 85.000 C 363.611 85.000,363.000 84.932,363.000 84.833 C 363.000 84.742,362.625 84.667,362.167 84.667 C 361.537 84.667,361.333 84.606,361.333 84.417 C 361.333 84.242,361.157 84.167,360.750 84.167 C 360.429 84.167,360.167 84.092,360.167 84.000 C 360.167 83.908,360.027 83.833,359.857 83.833 C 359.686 83.833,359.406 83.646,359.234 83.417 C 359.062 83.188,358.783 83.000,358.615 83.000 C 358.279 83.000,357.833 82.626,357.833 82.345 C 357.833 82.247,357.753 82.167,357.655 82.167 C 357.461 82.167,357.000 81.756,357.000 81.583 C 357.000 81.410,356.539 81.000,356.345 81.000 C 356.247 81.000,356.167 80.847,356.167 80.659 C 356.167 80.472,355.979 80.117,355.750 79.869 C 355.521 79.622,355.333 79.292,355.333 79.137 C 355.333 78.981,355.258 78.807,355.167 78.750 C 355.075 78.693,355.000 78.464,355.000 78.240 C 355.000 78.016,354.925 77.833,354.833 77.833 C 354.742 77.833,354.667 77.571,354.667 77.251 L 354.667 76.669 368.375 76.626 L 382.083 76.583 382.128 72.094 C 382.156 69.215,382.111 67.545,382.003 67.436 C 381.910 67.343,381.833 66.950,381.833 66.562 C 381.833 66.158,381.727 65.751,381.583 65.607 C 381.446 65.470,381.333 65.163,381.333 64.926 C 381.333 64.689,381.247 64.328,381.141 64.123 C 380.738 63.344,380.667 63.164,380.667 62.931 C 380.667 62.799,380.573 62.588,380.458 62.464 C 380.133 62.109,379.833 61.529,379.833 61.252 C 379.833 61.114,379.721 61.000,379.583 61.000 C 379.434 61.000,379.333 60.847,379.333 60.620 C 379.333 60.411,379.183 60.132,379.000 60.000 C 378.817 59.868,378.667 59.667,378.667 59.554 C 378.667 59.441,378.479 59.161,378.250 58.932 C 378.021 58.703,377.833 58.437,377.833 58.341 C 377.833 58.245,377.753 58.167,377.655 58.167 C 377.461 58.167,377.000 57.756,377.000 57.583 C 377.000 57.444,376.556 57.000,376.417 57.000 C 376.244 57.000,375.833 56.539,375.833 56.345 C 375.833 56.247,375.721 56.167,375.583 56.167 C 375.446 56.167,375.333 56.092,375.333 56.000 C 375.333 55.908,375.217 55.833,375.075 55.833 C 374.933 55.833,374.644 55.646,374.431 55.417 C 374.219 55.188,373.903 55.000,373.729 55.000 C 373.555 55.000,373.272 54.813,373.100 54.583 C 372.927 54.354,372.647 54.167,372.477 54.167 C 372.306 54.167,372.167 54.092,372.167 54.000 C 372.167 53.908,372.011 53.833,371.821 53.833 C 371.632 53.833,371.364 53.721,371.226 53.583 C 371.089 53.446,370.794 53.333,370.571 53.333 C 370.349 53.333,370.167 53.258,370.167 53.167 C 370.167 53.075,369.904 53.000,369.583 53.000 C 369.262 53.000,369.000 52.925,369.000 52.833 C 369.000 52.741,368.561 52.667,368.018 52.667 C 367.299 52.667,367.010 52.600,366.940 52.417 C 366.860 52.210,366.413 52.167,364.350 52.167 C 362.356 52.167,361.807 52.217,361.607 52.417 M271.083 53.167 C 271.027 53.258,270.728 53.333,270.419 53.333 C 270.110 53.333,269.745 53.446,269.607 53.583 C 269.470 53.721,269.131 53.833,268.855 53.833 C 268.579 53.833,268.307 53.908,268.250 54.000 C 268.193 54.092,267.999 54.167,267.818 54.167 C 267.637 54.167,267.446 54.279,267.394 54.417 C 267.341 54.554,267.156 54.667,266.982 54.667 C 266.809 54.667,266.667 54.742,266.667 54.833 C 266.667 54.925,266.507 55.000,266.311 55.000 C 266.115 55.000,265.781 55.188,265.569 55.417 C 265.356 55.646,265.067 55.833,264.925 55.833 C 264.783 55.833,264.667 55.908,264.667 56.000 C 264.667 56.092,264.554 56.167,264.417 56.167 C 264.279 56.167,264.167 56.279,264.167 56.417 C 264.167 56.554,264.060 56.667,263.929 56.667 C 263.798 56.667,263.412 56.929,263.072 57.250 C 262.732 57.571,262.421 57.833,262.381 57.833 C 262.272 57.833,261.833 58.296,261.833 58.412 C 261.833 58.510,261.661 58.739,261.208 59.244 C 261.094 59.372,261.000 59.539,261.000 59.615 C 261.000 59.692,260.813 59.895,260.583 60.067 C 260.354 60.239,260.167 60.520,260.167 60.690 C 260.167 60.861,260.092 61.000,260.000 61.000 C 259.908 61.000,259.833 61.112,259.833 61.250 C 259.833 61.387,259.777 61.500,259.708 61.501 C 259.541 61.502,259.000 62.466,259.000 62.764 C 259.000 62.894,258.925 63.000,258.833 63.000 C 258.742 63.000,258.667 63.178,258.667 63.396 C 258.667 63.614,258.554 63.886,258.417 64.000 C 258.279 64.114,258.167 64.386,258.167 64.604 C 258.167 64.822,258.092 65.000,258.000 65.000 C 257.908 65.000,257.833 65.367,257.833 65.816 C 257.833 66.363,257.756 66.661,257.599 66.721 C 257.172 66.885,256.762 76.950,257.150 77.750 C 257.239 77.933,257.343 78.530,257.381 79.075 C 257.419 79.620,257.536 80.095,257.641 80.130 C 257.747 80.166,257.833 80.451,257.833 80.764 C 257.833 81.077,257.908 81.333,258.000 81.333 C 258.092 81.333,258.167 81.598,258.167 81.922 C 258.167 82.291,258.260 82.546,258.417 82.606 C 258.554 82.659,258.667 82.844,258.667 83.018 C 258.667 83.191,258.742 83.333,258.833 83.333 C 258.925 83.333,259.000 83.521,259.000 83.750 C 259.000 83.979,259.075 84.167,259.167 84.167 C 259.258 84.167,259.333 84.319,259.333 84.505 C 259.333 84.691,259.446 84.887,259.583 84.940 C 259.721 84.992,259.833 85.183,259.833 85.363 C 259.833 85.717,260.200 86.167,260.488 86.167 C 260.586 86.167,260.667 86.323,260.667 86.515 C 260.667 86.708,261.000 87.187,261.417 87.592 C 261.829 87.993,262.167 88.399,262.167 88.494 C 262.167 88.589,262.240 88.667,262.330 88.667 C 262.419 88.667,262.906 89.074,263.412 89.572 C 263.918 90.070,264.482 90.525,264.666 90.583 C 264.850 90.641,265.000 90.759,265.000 90.845 C 265.000 90.930,265.112 91.000,265.250 91.000 C 265.387 91.000,265.500 91.075,265.500 91.167 C 265.500 91.258,265.642 91.333,265.816 91.333 C 265.989 91.333,266.174 91.446,266.227 91.583 C 266.280 91.721,266.475 91.833,266.661 91.833 C 266.848 91.833,267.000 91.908,267.000 92.000 C 267.000 92.092,267.179 92.167,267.399 92.167 C 267.618 92.167,267.841 92.279,267.894 92.417 C 267.950 92.563,268.199 92.667,268.495 92.667 C 268.773 92.667,269.000 92.742,269.000 92.833 C 269.000 92.925,269.262 93.000,269.583 93.000 C 269.904 93.000,270.167 93.075,270.167 93.167 C 270.167 93.259,270.615 93.333,271.179 93.333 C 271.856 93.333,272.273 93.416,272.440 93.583 C 272.640 93.783,273.190 93.833,275.184 93.833 C 277.246 93.833,277.694 93.790,277.773 93.583 C 277.843 93.400,278.132 93.333,278.851 93.333 C 279.395 93.333,279.833 93.259,279.833 93.167 C 279.833 93.075,280.171 93.000,280.583 93.000 C 280.996 93.000,281.333 92.925,281.333 92.833 C 281.333 92.742,281.521 92.667,281.750 92.667 C 282.009 92.667,282.167 92.572,282.167 92.417 C 282.167 92.261,282.324 92.167,282.586 92.167 C 283.049 92.167,283.677 91.864,283.883 91.542 C 283.957 91.427,284.163 91.333,284.342 91.333 C 284.520 91.333,284.667 91.258,284.667 91.167 C 284.667 91.075,284.783 91.000,284.925 91.000 C 285.067 91.000,285.445 90.745,285.766 90.434 C 286.454 89.766,286.917 89.608,287.241 89.932 C 287.370 90.061,287.557 90.167,287.655 90.167 C 287.753 90.167,287.833 90.247,287.833 90.345 C 287.833 90.557,288.250 91.000,288.449 91.000 C 288.525 91.000,288.728 91.188,288.900 91.417 C 289.073 91.646,289.353 91.833,289.523 91.833 C 289.694 91.833,289.833 91.908,289.833 92.000 C 289.833 92.092,290.013 92.167,290.232 92.167 C 290.452 92.167,290.674 92.279,290.727 92.417 C 290.783 92.563,291.033 92.667,291.328 92.667 C 291.606 92.667,291.833 92.742,291.833 92.833 C 291.833 92.934,292.528 93.000,293.583 93.000 L 295.333 93.000 295.333 89.000 L 295.333 85.000 294.917 85.000 C 294.688 85.000,294.500 84.925,294.500 84.833 C 294.500 84.742,294.237 84.667,293.917 84.667 C 293.509 84.667,293.333 84.591,293.333 84.417 C 293.333 84.279,293.258 84.167,293.167 84.167 C 293.058 84.167,293.000 81.333,293.000 76.000 C 293.000 70.667,292.942 67.833,292.833 67.833 C 292.742 67.833,292.667 67.464,292.667 67.012 C 292.667 66.504,292.571 66.095,292.417 65.940 C 292.279 65.803,292.167 65.460,292.167 65.179 C 292.167 64.897,292.092 64.667,292.000 64.667 C 291.908 64.667,291.833 64.487,291.833 64.268 C 291.833 64.048,291.721 63.826,291.583 63.773 C 291.437 63.717,291.333 63.467,291.333 63.172 C 291.333 62.894,291.273 62.667,291.200 62.667 C 291.127 62.667,290.970 62.399,290.852 62.072 C 290.734 61.746,290.531 61.438,290.402 61.388 C 290.273 61.338,290.167 61.156,290.167 60.982 C 290.167 60.809,290.092 60.667,290.000 60.667 C 289.908 60.667,289.833 60.554,289.833 60.417 C 289.833 60.279,289.721 60.167,289.583 60.167 C 289.444 60.167,289.333 60.019,289.333 59.833 C 289.333 59.650,289.258 59.500,289.167 59.500 C 289.075 59.500,289.000 59.420,289.000 59.321 C 289.000 59.091,288.576 58.667,288.345 58.667 C 288.247 58.667,288.167 58.586,288.167 58.488 C 288.167 58.257,287.743 57.833,287.512 57.833 C 287.414 57.833,287.333 57.755,287.333 57.659 C 287.333 57.442,286.571 56.667,286.359 56.667 C 286.273 56.667,286.159 56.554,286.106 56.417 C 286.054 56.279,285.892 56.167,285.748 56.167 C 285.603 56.167,285.297 55.979,285.068 55.750 C 284.839 55.521,284.542 55.333,284.409 55.333 C 284.276 55.333,284.167 55.258,284.167 55.167 C 284.167 55.075,284.066 55.000,283.942 55.000 C 283.608 55.000,282.667 54.499,282.667 54.321 C 282.667 54.236,282.479 54.167,282.250 54.167 C 282.021 54.167,281.833 54.092,281.833 54.000 C 281.833 53.908,281.579 53.833,281.268 53.833 C 280.919 53.833,280.666 53.738,280.606 53.583 C 280.541 53.412,280.273 53.333,279.755 53.333 C 279.340 53.333,279.000 53.258,279.000 53.167 C 279.000 53.060,277.587 53.000,275.093 53.000 C 272.668 53.000,271.147 53.063,271.083 53.167 M308.125 53.448 C 307.965 53.490,307.833 53.594,307.833 53.679 C 307.833 53.764,307.571 53.833,307.250 53.833 C 306.929 53.833,306.667 53.908,306.667 54.000 C 306.667 54.092,306.487 54.167,306.268 54.167 C 306.048 54.167,305.826 54.279,305.773 54.417 C 305.717 54.563,305.467 54.667,305.172 54.667 C 304.894 54.667,304.667 54.742,304.667 54.833 C 304.667 54.925,304.554 55.000,304.417 55.000 C 304.279 55.000,304.167 55.075,304.167 55.167 C 304.167 55.258,304.073 55.335,303.958 55.336 C 303.684 55.339,302.667 56.241,302.667 56.480 C 302.667 56.583,302.578 56.667,302.469 56.667 C 302.234 56.667,300.667 58.260,300.667 58.499 C 300.667 58.591,300.597 58.667,300.512 58.667 C 300.339 58.667,299.833 59.604,299.833 59.924 C 299.833 60.038,299.721 60.174,299.583 60.227 C 299.446 60.280,299.333 60.471,299.333 60.652 C 299.333 60.832,299.258 61.027,299.167 61.083 C 299.075 61.140,299.000 61.519,299.000 61.927 C 299.000 62.334,298.925 62.667,298.833 62.667 C 298.723 62.667,298.667 67.889,298.667 78.000 L 298.667 93.333 302.667 93.333 L 306.667 93.333 306.667 79.010 C 306.667 69.641,306.724 64.651,306.833 64.583 C 306.925 64.527,307.000 64.335,307.000 64.157 C 307.000 63.979,307.075 63.833,307.167 63.833 C 307.258 63.833,307.333 63.646,307.333 63.417 C 307.333 63.188,307.411 63.000,307.507 63.000 C 307.671 63.000,307.859 62.870,308.411 62.375 C 308.538 62.260,308.723 62.167,308.821 62.167 C 308.920 62.167,309.000 62.092,309.000 62.000 C 309.000 61.908,309.227 61.833,309.505 61.833 C 309.801 61.833,310.050 61.729,310.106 61.583 C 310.180 61.392,310.493 61.333,311.434 61.333 C 312.419 61.333,312.667 61.384,312.667 61.583 C 312.667 61.739,312.824 61.833,313.083 61.833 C 313.313 61.833,313.500 61.908,313.500 62.000 C 313.500 62.092,313.609 62.167,313.743 62.167 C 314.011 62.167,315.333 63.394,315.333 63.642 C 315.333 63.728,315.446 63.841,315.583 63.894 C 315.803 63.978,315.833 65.773,315.833 78.661 L 315.833 93.333 320.000 93.333 L 324.167 93.333 324.167 78.768 C 324.167 65.974,324.197 64.191,324.417 64.106 C 324.554 64.054,324.667 63.893,324.667 63.749 C 324.667 63.421,325.928 62.167,326.257 62.167 C 326.391 62.167,326.500 62.092,326.500 62.000 C 326.500 61.908,326.678 61.833,326.896 61.833 C 327.114 61.833,327.386 61.721,327.500 61.583 C 327.642 61.412,328.021 61.333,328.699 61.333 C 329.358 61.333,329.774 61.417,329.940 61.583 C 330.078 61.721,330.373 61.833,330.595 61.833 C 330.818 61.833,331.000 61.908,331.000 62.000 C 331.000 62.092,331.080 62.167,331.179 62.167 C 331.277 62.167,331.462 62.260,331.589 62.375 C 332.141 62.870,332.329 63.000,332.493 63.000 C 332.589 63.000,332.667 63.146,332.667 63.323 C 332.667 63.501,332.742 63.693,332.833 63.750 C 332.925 63.807,333.000 63.999,333.000 64.177 C 333.000 64.354,333.075 64.500,333.167 64.500 C 333.276 64.500,333.333 69.417,333.333 78.917 L 333.333 93.333 337.333 93.333 L 341.333 93.333 341.333 77.843 C 341.333 67.696,341.276 62.317,341.167 62.250 C 341.075 62.193,341.000 61.889,341.000 61.573 C 341.000 61.258,340.925 61.000,340.833 61.000 C 340.742 61.000,340.667 60.848,340.667 60.661 C 340.667 60.475,340.554 60.280,340.417 60.227 C 340.279 60.174,340.167 59.952,340.167 59.732 C 340.167 59.513,340.092 59.333,340.000 59.333 C 339.908 59.333,339.833 59.183,339.833 59.000 C 339.833 58.815,339.722 58.667,339.583 58.667 C 339.446 58.667,339.333 58.554,339.333 58.417 C 339.333 58.279,339.277 58.167,339.208 58.166 C 339.140 58.166,338.858 57.830,338.583 57.420 C 338.308 57.010,338.024 56.672,337.951 56.670 C 337.795 56.666,337.480 56.416,336.846 55.792 C 336.590 55.540,336.257 55.333,336.107 55.333 C 335.956 55.333,335.833 55.258,335.833 55.167 C 335.833 55.075,335.721 55.000,335.583 55.000 C 335.446 55.000,335.333 54.925,335.333 54.833 C 335.333 54.742,335.155 54.667,334.937 54.667 C 334.719 54.667,334.447 54.554,334.333 54.417 C 334.219 54.279,333.948 54.167,333.730 54.167 C 333.512 54.167,333.333 54.092,333.333 54.000 C 333.333 53.908,333.103 53.833,332.821 53.833 C 332.540 53.833,332.197 53.721,332.060 53.583 C 331.856 53.379,331.248 53.333,328.759 53.333 C 326.250 53.333,325.671 53.378,325.500 53.583 C 325.386 53.721,325.039 53.833,324.730 53.833 C 324.420 53.833,324.167 53.908,324.167 54.000 C 324.167 54.092,323.904 54.167,323.583 54.167 C 323.176 54.167,323.000 54.242,323.000 54.417 C 323.000 54.572,322.843 54.667,322.583 54.667 C 322.354 54.667,322.167 54.742,322.167 54.833 C 322.167 54.925,322.017 55.000,321.833 55.000 C 321.650 55.000,321.500 55.075,321.500 55.167 C 321.500 55.258,321.387 55.333,321.250 55.333 C 321.112 55.333,321.000 55.446,321.000 55.583 C 321.000 55.722,320.852 55.833,320.667 55.833 C 320.483 55.833,320.333 55.908,320.333 56.000 C 320.333 56.092,320.221 56.167,320.083 56.167 C 319.946 56.167,319.833 56.092,319.833 56.000 C 319.833 55.908,319.721 55.833,319.583 55.833 C 319.446 55.833,319.333 55.777,319.332 55.708 C 319.331 55.541,318.367 55.000,318.070 55.000 C 317.940 55.000,317.833 54.925,317.833 54.833 C 317.833 54.742,317.646 54.667,317.417 54.667 C 317.157 54.667,317.000 54.572,317.000 54.417 C 317.000 54.263,316.844 54.167,316.593 54.167 C 316.369 54.167,316.140 54.092,316.083 54.000 C 316.027 53.908,315.693 53.833,315.341 53.833 C 314.927 53.833,314.669 53.745,314.606 53.583 C 314.513 53.340,308.980 53.225,308.125 53.448 M365.777 60.667 C 366.256 60.667,366.693 60.742,366.750 60.833 C 366.807 60.925,367.074 61.000,367.343 61.000 C 367.613 61.000,367.833 61.075,367.833 61.167 C 367.833 61.258,368.021 61.333,368.250 61.333 C 368.509 61.333,368.667 61.428,368.667 61.583 C 368.667 61.722,368.815 61.833,369.000 61.833 C 369.183 61.833,369.333 61.908,369.333 62.000 C 369.333 62.092,369.407 62.167,369.497 62.167 C 369.711 62.167,372.167 64.622,372.167 64.836 C 372.167 64.926,372.279 65.000,372.417 65.000 C 372.572 65.000,372.667 65.157,372.667 65.417 C 372.667 65.646,372.742 65.833,372.833 65.833 C 372.925 65.833,373.000 65.983,373.000 66.167 C 373.000 66.350,373.075 66.500,373.167 66.500 C 373.258 66.500,373.333 66.688,373.333 66.917 C 373.333 67.176,373.428 67.333,373.583 67.333 C 373.739 67.333,373.833 67.491,373.833 67.750 L 373.833 68.167 364.250 68.167 C 357.972 68.167,354.667 68.109,354.667 68.000 C 354.667 67.908,354.742 67.833,354.833 67.833 C 354.925 67.833,355.000 67.646,355.000 67.417 C 355.000 67.188,355.075 67.000,355.167 67.000 C 355.258 67.000,355.333 66.821,355.333 66.601 C 355.333 66.382,355.446 66.159,355.583 66.106 C 355.721 66.054,355.833 65.858,355.833 65.672 C 355.833 65.486,355.908 65.333,356.000 65.333 C 356.092 65.333,356.167 65.236,356.167 65.118 C 356.167 65.000,356.429 64.624,356.750 64.284 C 357.071 63.944,357.333 63.591,357.333 63.500 C 357.333 63.408,357.415 63.333,357.514 63.333 C 357.613 63.333,357.949 63.071,358.261 62.750 C 358.573 62.429,358.941 62.167,359.080 62.167 C 359.220 62.167,359.333 62.092,359.333 62.000 C 359.333 61.908,359.446 61.833,359.583 61.833 C 359.721 61.833,359.833 61.721,359.833 61.583 C 359.833 61.428,359.991 61.333,360.250 61.333 C 360.479 61.333,360.667 61.258,360.667 61.167 C 360.667 61.075,360.929 61.000,361.250 61.000 C 361.571 61.000,361.833 60.925,361.833 60.833 C 361.833 60.741,362.276 60.667,362.827 60.667 C 363.457 60.667,363.899 60.583,364.035 60.436 C 364.218 60.241,364.299 60.241,364.579 60.436 C 364.760 60.563,365.299 60.667,365.777 60.667 M277.000 61.167 C 277.000 61.258,277.268 61.333,277.595 61.333 C 277.923 61.333,278.303 61.446,278.440 61.583 C 278.578 61.721,278.835 61.833,279.012 61.833 C 279.189 61.833,279.333 61.908,279.333 62.000 C 279.333 62.092,279.487 62.167,279.675 62.167 C 279.862 62.167,280.190 62.354,280.402 62.583 C 280.614 62.813,280.911 63.000,281.061 63.000 C 281.211 63.000,281.333 63.075,281.333 63.167 C 281.333 63.258,281.446 63.333,281.583 63.333 C 281.721 63.333,281.833 63.414,281.833 63.512 C 281.833 63.743,282.257 64.167,282.488 64.167 C 282.586 64.167,282.667 64.279,282.667 64.417 C 282.667 64.554,282.728 64.667,282.802 64.667 C 282.877 64.667,283.063 64.929,283.216 65.250 C 283.369 65.571,283.571 65.833,283.664 65.833 C 283.757 65.833,283.833 65.983,283.833 66.167 C 283.833 66.350,283.908 66.500,284.000 66.500 C 284.092 66.500,284.167 66.688,284.167 66.917 C 284.167 67.176,284.261 67.333,284.417 67.333 C 284.591 67.333,284.667 67.509,284.667 67.917 C 284.667 68.237,284.742 68.500,284.833 68.500 C 284.925 68.500,285.000 68.908,285.000 69.407 C 285.000 69.906,285.075 70.360,285.167 70.417 C 285.267 70.479,285.333 71.641,285.333 73.343 C 285.333 75.114,285.271 76.167,285.167 76.167 C 285.074 76.167,285.000 76.611,285.000 77.167 C 285.000 77.722,284.926 78.167,284.833 78.167 C 284.742 78.167,284.667 78.421,284.667 78.732 C 284.667 79.081,284.571 79.334,284.417 79.394 C 284.279 79.446,284.167 79.642,284.167 79.828 C 284.167 80.014,284.092 80.167,284.000 80.167 C 283.908 80.167,283.833 80.279,283.833 80.417 C 283.833 80.554,283.763 80.667,283.678 80.667 C 283.592 80.667,283.471 80.829,283.408 81.027 C 283.241 81.553,280.533 84.167,280.155 84.167 C 279.978 84.167,279.833 84.279,279.833 84.417 C 279.833 84.572,279.676 84.667,279.417 84.667 C 279.188 84.667,279.000 84.742,279.000 84.833 C 279.000 84.925,278.737 85.000,278.417 85.000 C 278.096 85.000,277.833 85.075,277.833 85.167 C 277.833 85.271,276.778 85.333,275.000 85.333 C 273.222 85.333,272.167 85.271,272.167 85.167 C 272.167 85.075,271.946 85.000,271.677 85.000 C 271.407 85.000,271.140 84.925,271.083 84.833 C 271.027 84.742,270.854 84.665,270.698 84.664 C 270.543 84.662,270.240 84.475,270.024 84.247 C 269.808 84.020,269.490 83.833,269.316 83.833 C 269.142 83.833,269.000 83.721,269.000 83.583 C 269.000 83.446,268.944 83.333,268.875 83.333 C 268.662 83.333,267.833 82.555,267.833 82.356 C 267.833 82.252,267.753 82.167,267.655 82.167 C 267.408 82.167,267.001 81.737,266.995 81.470 C 266.987 81.169,266.589 80.667,266.357 80.667 C 266.252 80.667,266.167 80.479,266.167 80.250 C 266.167 80.021,266.092 79.833,266.000 79.833 C 265.908 79.833,265.833 79.646,265.833 79.417 C 265.833 79.157,265.739 79.000,265.583 79.000 C 265.398 79.000,265.333 78.806,265.333 78.250 C 265.333 77.837,265.258 77.500,265.167 77.500 C 265.060 77.500,265.000 75.972,265.000 73.250 C 265.000 70.528,265.060 69.000,265.167 69.000 C 265.258 69.000,265.333 68.746,265.333 68.434 C 265.333 68.086,265.429 67.832,265.583 67.773 C 265.721 67.720,265.833 67.529,265.833 67.348 C 265.833 67.168,265.908 66.973,266.000 66.917 C 266.092 66.860,266.167 66.668,266.167 66.490 C 266.167 66.312,266.237 66.167,266.322 66.167 C 266.408 66.167,266.531 65.998,266.596 65.792 C 266.661 65.585,266.854 65.295,267.024 65.147 C 267.194 64.999,267.333 64.827,267.333 64.765 C 267.333 64.525,268.495 63.333,268.729 63.333 C 268.811 63.333,269.000 63.202,269.149 63.042 C 269.474 62.693,269.974 62.360,270.375 62.226 C 270.535 62.172,270.667 62.062,270.667 61.981 C 270.667 61.900,270.894 61.833,271.172 61.833 C 271.467 61.833,271.717 61.729,271.773 61.583 C 271.835 61.421,272.094 61.333,272.508 61.333 C 272.859 61.333,273.193 61.258,273.250 61.167 C 273.309 61.072,274.141 61.000,275.177 61.000 C 276.281 61.000,277.000 61.066,277.000 61.167 " stroke="none" fill="#fcfcfc" fill-rule="evenodd"></path><path id="path1" d="M142.667 51.179 C 142.667 93.041,142.638 98.553,142.417 98.774 C 142.251 98.940,142.167 99.356,142.167 100.012 C 142.167 100.560,142.092 101.000,142.000 101.000 C 141.908 101.000,141.833 101.179,141.833 101.399 C 141.833 101.618,141.721 101.841,141.583 101.894 C 141.446 101.946,141.333 102.105,141.333 102.247 C 141.333 102.593,139.318 104.572,138.677 104.856 C 138.396 104.980,138.167 105.138,138.167 105.207 C 138.167 105.277,137.939 105.333,137.661 105.333 C 137.366 105.333,137.116 105.437,137.060 105.583 C 136.990 105.766,136.701 105.833,135.982 105.833 L 135.000 105.833 135.000 111.250 L 135.000 116.667 136.468 116.667 C 137.501 116.667,138.032 116.594,138.260 116.422 C 138.438 116.287,138.940 116.175,139.375 116.172 C 139.810 116.169,140.167 116.092,140.167 116.000 C 140.167 115.908,140.429 115.833,140.750 115.833 C 141.157 115.833,141.333 115.758,141.333 115.583 C 141.333 115.410,141.508 115.333,141.907 115.333 C 142.222 115.333,142.527 115.258,142.583 115.167 C 142.640 115.075,142.832 115.000,143.010 115.000 C 143.188 115.000,143.333 114.933,143.333 114.851 C 143.333 114.770,143.521 114.656,143.750 114.598 C 143.979 114.541,144.167 114.420,144.167 114.330 C 144.167 114.240,144.279 114.167,144.417 114.167 C 144.554 114.167,144.667 114.092,144.667 114.000 C 144.667 113.908,144.817 113.833,145.000 113.833 C 145.185 113.833,145.333 113.722,145.333 113.583 C 145.333 113.446,145.446 113.333,145.583 113.333 C 145.721 113.333,145.833 113.258,145.833 113.167 C 145.833 113.075,145.956 113.000,146.105 113.000 C 146.255 113.000,146.625 112.737,146.927 112.417 C 147.230 112.096,147.558 111.833,147.655 111.833 C 147.753 111.833,147.833 111.763,147.833 111.676 C 147.833 111.590,148.171 111.177,148.583 110.759 C 148.996 110.340,149.333 109.848,149.333 109.666 C 149.333 109.483,149.414 109.333,149.512 109.333 C 149.806 109.333,150.167 108.881,150.167 108.512 C 150.167 108.322,150.252 108.167,150.357 108.167 C 150.613 108.167,150.988 107.652,150.995 107.292 C 150.998 107.131,151.075 107.000,151.167 107.000 C 151.258 107.000,151.333 106.821,151.333 106.601 C 151.333 106.382,151.446 106.159,151.583 106.106 C 151.729 106.050,151.833 105.801,151.833 105.505 C 151.833 105.227,151.908 105.000,152.000 105.000 C 152.092 105.000,152.167 104.784,152.167 104.520 C 152.167 104.257,152.279 103.947,152.417 103.833 C 152.569 103.707,152.667 103.341,152.667 102.896 C 152.667 102.495,152.742 102.167,152.833 102.167 C 152.944 102.167,153.000 87.472,153.000 58.417 L 153.000 14.667 173.833 14.667 L 194.667 14.667 194.667 59.583 C 194.667 89.417,194.723 104.500,194.833 104.500 C 194.925 104.500,195.000 104.800,195.000 105.167 C 195.000 105.533,195.075 105.833,195.167 105.833 C 195.258 105.833,195.333 106.061,195.333 106.339 C 195.333 106.634,195.437 106.884,195.583 106.940 C 195.721 106.992,195.833 107.215,195.833 107.434 C 195.833 107.654,195.908 107.833,196.000 107.833 C 196.092 107.833,196.167 107.986,196.167 108.172 C 196.167 108.358,196.279 108.554,196.417 108.606 C 196.554 108.659,196.667 108.844,196.667 109.018 C 196.667 109.191,196.742 109.333,196.833 109.333 C 196.925 109.333,197.000 109.414,197.000 109.512 C 197.000 109.610,197.094 109.795,197.208 109.923 C 197.661 110.428,197.833 110.657,197.833 110.755 C 197.833 110.924,198.297 111.333,198.488 111.333 C 198.586 111.333,198.667 111.412,198.667 111.508 C 198.667 111.712,200.253 113.333,200.452 113.333 C 200.526 113.333,200.789 113.521,201.036 113.750 C 201.283 113.979,201.604 114.167,201.748 114.167 C 201.892 114.167,202.054 114.279,202.106 114.417 C 202.159 114.554,202.307 114.667,202.434 114.667 C 202.562 114.667,202.667 114.742,202.667 114.833 C 202.667 114.925,202.854 115.000,203.083 115.000 C 203.313 115.000,203.500 115.075,203.500 115.167 C 203.500 115.258,203.655 115.333,203.845 115.333 C 204.035 115.333,204.303 115.446,204.440 115.583 C 204.578 115.721,204.873 115.833,205.095 115.833 C 205.318 115.833,205.500 115.908,205.500 116.000 C 205.500 116.092,205.903 116.167,206.396 116.167 C 206.990 116.167,207.363 116.251,207.500 116.417 C 207.684 116.639,218.188 116.662,300.729 116.625 L 393.750 116.583 393.794 111.208 L 393.838 105.833 301.437 105.833 C 227.671 105.833,209.019 105.791,208.954 105.625 C 208.909 105.510,208.557 105.321,208.172 105.203 C 207.384 104.963,205.833 103.484,205.833 102.974 C 205.833 102.805,205.721 102.667,205.583 102.667 C 205.410 102.667,205.333 102.492,205.333 102.093 C 205.333 101.778,205.258 101.473,205.167 101.417 C 205.056 101.348,205.000 84.887,205.000 52.573 L 205.000 3.833 173.833 3.833 L 142.667 3.833 142.667 51.179 M156.458 39.447 C 156.074 39.549,156.038 41.433,156.411 41.926 C 156.582 42.152,156.658 42.690,156.661 43.698 C 156.664 44.495,156.742 45.193,156.833 45.250 C 156.925 45.307,157.000 45.724,157.000 46.177 C 157.000 46.629,157.075 47.000,157.167 47.000 C 157.258 47.000,157.333 47.262,157.333 47.583 C 157.333 47.991,157.409 48.167,157.583 48.167 C 157.758 48.167,157.833 48.343,157.833 48.750 C 157.833 49.071,157.908 49.333,158.000 49.333 C 158.092 49.333,158.167 49.596,158.167 49.917 C 158.167 50.324,158.242 50.500,158.417 50.500 C 158.572 50.500,158.667 50.657,158.667 50.917 C 158.667 51.146,158.742 51.333,158.833 51.333 C 158.925 51.333,159.000 51.521,159.000 51.750 C 159.000 51.979,159.075 52.167,159.167 52.167 C 159.258 52.167,159.333 52.319,159.333 52.505 C 159.333 52.691,159.446 52.887,159.583 52.940 C 159.721 52.992,159.836 53.159,159.839 53.309 C 159.845 53.655,160.226 54.167,160.477 54.167 C 160.581 54.167,160.667 54.338,160.667 54.547 C 160.667 54.755,160.817 55.035,161.000 55.167 C 161.183 55.299,161.333 55.491,161.333 55.594 C 161.333 55.697,161.521 55.999,161.750 56.266 C 161.979 56.532,162.166 56.806,162.166 56.875 C 162.167 56.944,162.247 57.000,162.345 57.000 C 162.557 57.000,163.000 57.417,163.000 57.615 C 163.000 57.692,163.188 57.895,163.417 58.067 C 163.646 58.239,163.833 58.465,163.833 58.569 C 163.833 58.673,164.096 58.899,164.417 59.072 C 164.737 59.244,165.000 59.454,165.000 59.538 C 165.000 59.748,165.437 60.167,165.655 60.167 C 165.753 60.167,165.833 60.247,165.833 60.345 C 165.833 60.576,166.257 61.000,166.488 61.000 C 166.586 61.000,166.667 61.075,166.667 61.167 C 166.667 61.258,166.783 61.333,166.925 61.333 C 167.067 61.333,167.356 61.521,167.569 61.750 C 167.781 61.979,168.115 62.167,168.311 62.167 C 168.507 62.167,168.667 62.247,168.667 62.345 C 168.667 62.639,169.119 63.000,169.488 63.000 C 169.678 63.000,169.833 63.075,169.833 63.167 C 169.833 63.258,170.021 63.333,170.250 63.333 C 170.509 63.333,170.667 63.428,170.667 63.583 C 170.667 63.722,170.815 63.833,171.000 63.833 C 171.183 63.833,171.333 63.908,171.333 64.000 C 171.333 64.092,171.513 64.167,171.732 64.167 C 171.952 64.167,172.174 64.279,172.227 64.417 C 172.280 64.554,172.471 64.667,172.652 64.667 C 172.832 64.667,173.027 64.742,173.083 64.833 C 173.140 64.925,173.407 65.000,173.677 65.000 C 173.946 65.000,174.167 65.075,174.167 65.167 C 174.167 65.258,174.467 65.333,174.833 65.333 C 175.315 65.333,175.500 65.403,175.500 65.583 C 175.500 65.768,175.693 65.833,176.240 65.833 C 176.647 65.833,177.027 65.908,177.083 66.000 C 177.140 66.092,177.701 66.167,178.329 66.167 C 179.096 66.167,179.495 66.235,179.542 66.375 C 179.595 66.535,180.933 66.594,185.305 66.631 L 191.000 66.679 191.000 61.256 L 191.000 55.833 185.851 55.833 C 181.428 55.833,180.689 55.798,180.606 55.583 C 180.541 55.413,180.274 55.333,179.765 55.333 C 179.355 55.333,178.973 55.258,178.917 55.167 C 178.860 55.075,178.556 55.000,178.240 55.000 C 177.925 55.000,177.667 54.925,177.667 54.833 C 177.667 54.742,177.450 54.667,177.184 54.667 C 176.910 54.667,176.661 54.559,176.606 54.417 C 176.554 54.279,176.358 54.167,176.172 54.167 C 175.986 54.167,175.833 54.092,175.833 54.000 C 175.833 53.908,175.646 53.833,175.417 53.833 C 175.157 53.833,175.000 53.739,175.000 53.583 C 175.000 53.446,174.887 53.333,174.750 53.333 C 174.612 53.333,174.500 53.258,174.500 53.167 C 174.500 53.075,174.350 53.000,174.167 53.000 C 173.983 53.000,173.833 52.925,173.833 52.833 C 173.833 52.742,173.721 52.667,173.583 52.667 C 173.446 52.667,173.333 52.586,173.333 52.488 C 173.333 52.288,172.921 51.833,172.740 51.833 C 172.589 51.833,171.000 50.223,171.000 50.071 C 171.000 50.008,170.737 49.708,170.417 49.406 C 170.096 49.103,169.832 48.757,169.830 48.636 C 169.829 48.515,169.641 48.240,169.414 48.024 C 169.186 47.808,169.000 47.490,169.000 47.316 C 169.000 47.142,168.925 47.000,168.833 47.000 C 168.742 47.000,168.667 46.848,168.667 46.661 C 168.667 46.475,168.554 46.280,168.417 46.227 C 168.262 46.168,168.167 45.914,168.167 45.566 C 168.167 45.254,168.092 45.000,168.000 45.000 C 167.908 45.000,167.833 44.773,167.833 44.495 C 167.833 44.199,167.729 43.950,167.583 43.894 C 167.406 43.825,167.333 43.548,167.333 42.932 C 167.333 42.456,167.262 41.995,167.175 41.908 C 167.088 41.821,166.994 41.225,166.967 40.583 L 166.917 39.417 161.833 39.393 C 159.037 39.380,156.619 39.404,156.458 39.447 " stroke="none" fill="#048cfc" fill-rule="evenodd"></path></g></svg>